<svg xmlns="http://www.w3.org/2000/svg" xmlns:xlink="http://www.w3.org/1999/xlink" width="118" height="65" viewBox="0 0 118 65">
  <defs>
    <style>
      .cls-1 {
        fill: #ff6e0f;
      }

      .cls-2 {
        fill: #056ee1;
      }

      .cls-3 {
        clip-path: url(#clip-path);
      }

      .cls-4 {
        fill: rgba(0,0,0,0);
      }
    </style>
    <clipPath id="clip-path">
      <path id="Path_33786" data-name="Path 33786" d="M0,0H118V65H0Z"/>
    </clipPath>
  </defs>
  <g id="Group_1089" data-name="Group 1089" transform="translate(-5547 -931)">
    <g id="HKSTP_logo_ENG_OP-01" transform="translate(5547 943)">
      <path id="Path_2236" data-name="Path 2236" class="cls-1" d="M357.743,300.739H342.991V320.4h3.866v-6.528h10.907c4.5,0,5.917-1.519,5.917-5.9v-.947c0-4.871-1.42-6.291-5.917-6.291Zm2.091,7.337c0,1.933-.572,2.6-2.091,2.6H346.837v-6.39h10.907c1.519,0,2.091.611,2.091,2.682ZM333.977,320.4h-3.866V304.289h-7.179v-3.55h18.2v3.55h-7.179V320.4Zm-12.11-6.37v.671c0,4.161-1.736,5.68-6.39,5.68h-13.9v-3.511h13.648c2.091,0,2.7-.671,2.7-2.446s-.572-2.268-2.6-2.268h-7.988c-4.733,0-6.232-1.657-6.232-5.286v-.651c0-3.925,1.558-5.522,6.331-5.522h13.707v3.55H307.431c-1.893,0-2.446.848-2.446,2.446s.532,2.229,2.446,2.229h7.889c4.872,0,6.568,1.6,6.568,5.069Z" transform="translate(-265.895 -279.794)"/>
      <path id="Path_2237" data-name="Path 2237" class="cls-2" d="M240.6,216.593a3.081,3.081,0,0,1-3.077,3.077,3.031,3.031,0,0,1-3.077-2.781,25.016,25.016,0,0,0-2.5-1.42,4.6,4.6,0,0,1-3.037,2.406,34.506,34.506,0,0,0,1.42,9.585,3.43,3.43,0,0,1,1.795,2.978,3.371,3.371,0,0,1-3.392,3.353,3.337,3.337,0,0,1-3.353-3.353,2.706,2.706,0,0,1,1.617-2.88,40.057,40.057,0,0,0,.533-9.585,4.51,4.51,0,0,1-4.122-4.5c0-2.367.138-1.144.335-1.657a21.125,21.125,0,0,0-6.291-2.327,2.945,2.945,0,0,1-1.6.434,3.136,3.136,0,1,1,3.116-3.116v.039a21.7,21.7,0,0,0,5.384,3.885,4.494,4.494,0,0,1,3.55-1.755c1.459,0,1.223.138,1.755.375a50.326,50.326,0,0,0,4.5-9.782,3.019,3.019,0,0,1-.414-1.558,3.313,3.313,0,1,1,3.353,3.313l-.907,1.124c-.138.138-.237.276-.375.434a53.044,53.044,0,0,0-3.964,5.305l-.2.335c-.2.3-.375.611-.533.907l-.3.611a4.378,4.378,0,0,1,1.6,3.412c0,1.381-.039.513-.059.749a15.572,15.572,0,0,0,2.84.335,3.042,3.042,0,0,1,2.327-1.045,3.081,3.081,0,0,1,3.077,3.077Zm-83.979-.947h-5.345l-8.993,9.644,8.757,10.019h5.345l-8.974-10.019ZM141.928,235.31H138.1v-8.461H126.387v8.461H122.6V215.646h3.787v7.988H138.1v-7.988h3.826Z" transform="translate(-122.6 -194.701)"/>
    </g>
    <g id="Group_930" data-name="Group 930" class="cls-3" transform="translate(5547 931)">
      <path id="Path_33785" data-name="Path 33785" class="cls-4" d="M0,0H117V64.084H0Z" transform="translate(0.496 0.458)"/>
    </g>
  </g>
</svg>
