<svg width="120" height="42" fill="none" xmlns="http://www.w3.org/2000/svg"><path d="M95.537 29.256c0 1.99-.585 2.695-2.134 2.695H82.321v-6.615h11.09c1.55 0 2.134.63 2.134 2.763l-.008 1.157Zm-2.134-7.595h-15.01v20.336h3.924v-6.755h11.09c4.578 0 6.025-1.575 6.025-6.09v-.98c0-5.04-1.446-6.51-6.026-6.51m-35.391 0v3.675h7.298v16.66h3.925V25.336h7.299v-3.675l-18.522.001Zm-1.101 13.755c0-3.605-1.721-5.25-6.679-5.25h-8.031c-1.928 0-2.479-.663-2.479-2.31s.55-2.52 2.479-2.52h13.949v-3.676H42.204c-4.854 0-6.438 1.645-6.438 5.705v.663c0 3.745 1.514 5.46 6.335 5.46h8.124c2.066 0 2.652.56 2.652 2.346 0 1.82-.62 2.52-2.754 2.52h-13.87v3.64h14.15c4.75 0 6.506-1.575 6.506-5.88v-.7" fill="#fff"/><path d="M116.882 19.456a3.094 3.094 0 0 1 1.704.523c.507.338.906.818 1.15 1.382.243.564.321 1.188.223 1.795a3.206 3.206 0 0 1-.775 1.63 3.126 3.126 0 0 1-1.523.937 3.084 3.084 0 0 1-1.779-.057 3.13 3.13 0 0 1-1.461-1.034 3.212 3.212 0 0 1-.672-1.675 26.516 26.516 0 0 0-2.548-1.47 4.694 4.694 0 0 1-1.275 1.595 4.6 4.6 0 0 1-1.823.89 35.72 35.72 0 0 0 1.446 9.904c.547.301 1.005.746 1.326 1.287.321.542.493 1.161.498 1.794a3.507 3.507 0 0 1-1.033 2.405c-.64.635-1.498.99-2.391.99a3.397 3.397 0 0 1-2.392-.99 3.507 3.507 0 0 1-1.033-2.405c-.003-.6.147-1.19.437-1.711.29-.522.709-.958 1.215-1.265.572-3.267.757-6.592.552-9.905a4.493 4.493 0 0 1-2.022-.661 4.58 4.58 0 0 1-1.505-1.523 4.67 4.67 0 0 1-.659-2.052 4.68 4.68 0 0 1 .329-2.133 21.339 21.339 0 0 0-6.403-2.415 2.9 2.9 0 0 1-1.618.455 3.147 3.147 0 0 1-1.776-.538 3.225 3.225 0 0 1-1.18-1.452 3.287 3.287 0 0 1-.185-1.874c.122-.63.426-1.208.872-1.662a3.168 3.168 0 0 1 1.635-.887 3.136 3.136 0 0 1 1.843.189c.583.247 1.08.665 1.429 1.2.348.535.532 1.163.53 1.805v.034a22.577 22.577 0 0 0 5.473 4.025 4.599 4.599 0 0 1 1.6-1.336 4.526 4.526 0 0 1 2.015-.484 4.454 4.454 0 0 1 1.791.385 52.937 52.937 0 0 0 4.577-10.116 3.191 3.191 0 0 1-.413-1.61c0-.676.196-1.337.565-1.9a3.387 3.387 0 0 1 1.506-1.262c.614-.26 1.29-.33 1.943-.2.652.128 1.253.45 1.726.926.472.475.796 1.082.931 1.744.134.662.073 1.35-.177 1.977a3.415 3.415 0 0 1-1.224 1.545 3.332 3.332 0 0 1-1.862.596l-.93 1.155a5.184 5.184 0 0 0-.378.456 52.1 52.1 0 0 0-4.028 5.495l-.207.35c-.206.315-.379.63-.551.945l-.31.63c.511.43.922.972 1.201 1.583.28.612.423 1.28.417 1.954-.004.26-.027.518-.068.774.95.213 1.919.33 2.892.35a3.14 3.14 0 0 1 1.072-.804 3.1 3.1 0 0 1 1.303-.281M29.16 21.664l-9.158 9.974 8.915 10.36h5.436l-9.124-10.36 9.365-9.974H29.16Zm-13.392 0v8.259H3.856v-8.26H0V42h3.856v-8.75h11.912V42h3.89V21.664h-3.89Z" fill="#fff"/></svg>
